<svg width="18" height="18" viewBox="0 0 18 18" fill="none" xmlns="http://www.w3.org/2000/svg">
<path d="M6.2345 3C4.459 3 3 4.457 3 6.2345V10.7655C3 12.541 4.457 14 6.2345 14H10.7655C12.541 14 14 12.543 14 10.7655V6.235C14 4.459 12.543 3 10.7655 3H6.2345ZM6.2345 4H10.7655C11.059 3.99961 11.3498 4.05713 11.6211 4.16929C11.8924 4.28144 12.1388 4.44602 12.3464 4.65359C12.554 4.86116 12.7186 5.10765 12.8307 5.37893C12.9429 5.65021 13.0004 5.94095 13 6.2345V10.7655C13.0004 11.059 12.9429 11.3498 12.8307 11.6211C12.7186 11.8924 12.554 12.1388 12.3464 12.3464C12.1388 12.554 11.8924 12.7186 11.6211 12.8307C11.3498 12.9429 11.059 13.0004 10.7655 13H6.235C5.94141 13.0005 5.65061 12.943 5.37927 12.8309C5.10794 12.7187 4.86139 12.5542 4.65377 12.3466C4.44614 12.139 4.28152 11.8925 4.16933 11.6212C4.05715 11.3499 3.9996 11.0591 4 10.7655V6.235C3.99954 5.94141 4.05702 5.65061 4.16914 5.37927C4.28127 5.10794 4.44583 4.86139 4.65341 4.65377C4.86099 4.44614 5.1075 4.28152 5.37881 4.16933C5.65012 4.05715 5.94091 3.9996 6.2345 4ZM11.453 5.094C11.3934 5.09374 11.3344 5.10527 11.2793 5.12794C11.2243 5.15062 11.1742 5.18397 11.1321 5.22609C11.09 5.26821 11.0566 5.31825 11.0339 5.37333C11.0113 5.42841 10.9997 5.48744 11 5.547C11 5.799 11.201 6 11.453 6C11.5126 6.00033 11.5717 5.98884 11.6268 5.9662C11.682 5.94356 11.7321 5.91021 11.7742 5.86809C11.8164 5.82596 11.8498 5.7759 11.8725 5.72078C11.8952 5.66567 11.9068 5.60661 11.9065 5.547C11.9068 5.48739 11.8952 5.42833 11.8725 5.37322C11.8498 5.3181 11.8164 5.26804 11.7742 5.22591C11.7321 5.18379 11.682 5.15044 11.6268 5.1278C11.5717 5.10516 11.5126 5.09367 11.453 5.094ZM8.5 5.5C6.85 5.5 5.5 6.85 5.5 8.5C5.5 10.15 6.85 11.5 8.5 11.5C10.15 11.5 11.5 10.15 11.5 8.5C11.5 6.85 10.15 5.5 8.5 5.5ZM8.5 6.5C9.6115 6.5 10.5 7.3885 10.5 8.5C10.5 9.6115 9.6115 10.5 8.5 10.5C7.3885 10.5 6.5 9.6115 6.5 8.5C6.5 7.3885 7.3885 6.5 8.5 6.5Z" fill="#7C9994"/>
</svg>
