<svg width="18" height="18" viewBox="0 0 18 18" fill="none" xmlns="http://www.w3.org/2000/svg">
<path d="M5.3215 3C5.14805 2.99987 4.97627 3.03391 4.81597 3.10018C4.65568 3.16645 4.51001 3.26366 4.3873 3.38624C4.26458 3.50882 4.16721 3.65437 4.10076 3.81459C4.0343 3.97481 4.00007 4.14655 4 4.32C4 5.05 4.5915 5.655 5.32 5.655C6.0495 5.655 6.6415 5.05 6.6415 4.321C6.64163 4.14757 6.60759 3.97582 6.54131 3.81555C6.47503 3.65529 6.37782 3.50965 6.25523 3.38697C6.13265 3.26429 5.98709 3.16697 5.82687 3.10057C5.66666 3.03418 5.49493 3 5.3215 3V3ZM11.7675 6.5C10.658 6.5 10.0235 7.08 9.7185 7.657H9.6865V6.6555H7.5V14H9.7785V10.3645C9.7785 9.4065 9.8505 8.4805 11.036 8.4805C12.2045 8.4805 12.2215 9.573 12.2215 10.425V14H14.5V9.966C14.5 7.992 14.0755 6.5 11.7675 6.5ZM4.1815 6.655V14H6.4615V6.655H4.1815V6.655Z" fill="#7C9994"/>
</svg>
