<svg width="18" height="18" viewBox="0 0 18 18" fill="none" xmlns="http://www.w3.org/2000/svg">
<path d="M7 4C6.20435 4 5.44129 4.31607 4.87868 4.87868C4.31607 5.44129 4 6.20435 4 7V10.5C4 11.2956 4.31607 12.0587 4.87868 12.6213C5.44129 13.1839 6.20435 13.5 7 13.5H10.5C11.2956 13.5 12.0587 13.1839 12.6213 12.6213C13.1839 12.0587 13.5 11.2956 13.5 10.5V8C13.5 7.86739 13.4473 7.74021 13.3536 7.64645C13.2598 7.55268 13.1326 7.5 13 7.5H12.5C12.3674 7.5 12.2402 7.44732 12.1464 7.35355C12.0527 7.25979 12 7.13261 12 7C12 6.20435 11.6839 5.44129 11.1213 4.87868C10.5587 4.31607 9.79565 4 9 4H7ZM7 6.5H9C9.275 6.5 9.5 6.725 9.5 7C9.5 7.275 9.275 7.5 9 7.5H7C6.725 7.5 6.5 7.275 6.5 7C6.5 6.725 6.725 6.5 7 6.5ZM7 10H10.5C10.775 10 11 10.225 11 10.5C11 10.775 10.775 11 10.5 11H7C6.725 11 6.5 10.775 6.5 10.5C6.5 10.225 6.725 10 7 10Z" fill="#7C9994"/>
</svg>
