<svg width="18" height="18" viewBox="0 0 18 18" fill="none" xmlns="http://www.w3.org/2000/svg">
<path d="M15 5.15715C14.5507 5.35606 14.074 5.48634 13.586 5.54365C14.0998 5.23599 14.4843 4.75214 14.668 4.18215C14.1848 4.46851 13.6564 4.67072 13.1055 4.78015C12.768 4.41932 12.3297 4.16839 11.8477 4.05999C11.3656 3.95159 10.8621 3.99072 10.4026 4.17231C9.94315 4.3539 9.54891 4.66954 9.27121 5.07818C8.9935 5.48682 8.84517 5.96957 8.8455 6.46365C8.8455 6.65715 8.867 6.84465 8.9105 7.02415C7.93126 6.97595 6.97316 6.72195 6.09864 6.2787C5.22413 5.83546 4.45283 5.21292 3.835 4.45165C3.61549 4.8274 3.50035 5.25497 3.5015 5.69015C3.5015 6.54365 3.935 7.29765 4.597 7.73915C4.20598 7.72674 3.82363 7.62078 3.482 7.43015V7.46165C3.48166 8.03023 3.67821 8.5814 4.03826 9.02147C4.3983 9.46154 4.89961 9.76336 5.457 9.87565C5.09453 9.97505 4.71406 9.98976 4.345 9.91865C4.5022 10.4078 4.80827 10.8356 5.22044 11.1424C5.63261 11.4491 6.13031 11.6195 6.644 11.6296C6.13332 12.0305 5.54861 12.3267 4.92332 12.5013C4.29804 12.6759 3.64446 12.7254 3 12.6471C4.12526 13.3713 5.43537 13.7558 6.7735 13.7546C11.3025 13.7546 13.7795 10.0026 13.7795 6.74865C13.7795 6.64365 13.7755 6.53565 13.7715 6.43015C14.2528 6.08167 14.6687 5.65088 15 5.15765V5.15715Z" fill="#7C9994"/>
</svg>
