<svg width="18" height="18" viewBox="0 0 18 18" fill="none" xmlns="http://www.w3.org/2000/svg">
<path d="M14.8895 2.00133C14.7043 2.01433 14.5224 2.05627 14.3511 2.12549H14.3488C14.1844 2.18841 13.4024 2.50577 12.2137 2.98682L7.95388 4.71783C4.89722 5.95944 1.89249 7.18212 1.89249 7.18212L1.92827 7.16875C1.92827 7.16875 1.72111 7.23445 1.50471 7.37754C1.37102 7.45962 1.25598 7.56702 1.16656 7.69323C1.06038 7.84356 0.974973 8.07351 1.00671 8.31125C1.05865 8.71325 1.32871 8.95433 1.5226 9.0874C1.7188 9.22214 1.90576 9.28505 1.90576 9.28505H1.91038L4.72814 10.2009C4.85452 10.5924 5.5868 12.9152 5.7628 13.4503C5.86667 13.7699 5.96766 13.9698 6.09403 14.1223C6.1552 14.2003 6.22676 14.2654 6.31274 14.3177C6.35744 14.3428 6.4051 14.3626 6.45469 14.3768L6.42584 14.3701C6.4345 14.3723 6.44142 14.379 6.44777 14.3812C6.47085 14.3873 6.48643 14.3896 6.51586 14.394C6.96193 14.5243 7.32028 14.257 7.32028 14.257L7.34047 14.2415L9.00413 12.7799L11.7925 14.8439L11.8559 14.8701C12.437 15.1162 13.0256 14.9792 13.3367 14.7375C13.65 14.4942 13.7718 14.183 13.7718 14.183L13.792 14.1329L15.9467 3.48235C16.0078 3.21955 16.0234 2.97346 15.9559 2.7346C15.8863 2.49287 15.7255 2.28496 15.5052 2.15166C15.3202 2.04315 15.1057 1.99078 14.8895 2.00133V2.00133ZM14.8312 3.14272C14.8289 3.1778 14.8358 3.1739 14.8197 3.24127V3.24739L12.6852 13.7871C12.6759 13.8022 12.6603 13.835 12.6176 13.8679C12.5726 13.9024 12.5369 13.9241 12.3493 13.8523L8.93892 11.3295L6.87883 13.1413L7.31162 10.4743L12.8837 5.46335C13.1133 5.25735 13.0366 5.21392 13.0366 5.21392C13.0527 4.96114 12.6898 5.13987 12.6898 5.13987L5.66355 9.33962L5.66124 9.32848L2.29355 8.23442V8.23219L2.28489 8.23052C2.29079 8.22863 2.29657 8.2264 2.3022 8.22384L2.32067 8.21493L2.33856 8.20881C2.33856 8.20881 5.34559 6.98613 8.40226 5.74452C9.93261 5.12261 11.4745 4.49624 12.6604 4.01296C13.8462 3.53246 14.7227 3.18002 14.7724 3.16109C14.8197 3.14328 14.7972 3.14328 14.8312 3.14328V3.14272Z" fill="#F8F6F1"/>
</svg>
