<svg width="14" height="14" viewBox="0 0 14 14" fill="none" xmlns="http://www.w3.org/2000/svg">
<path d="M1.34319 1.34334C1.53072 1.1558 1.78508 1.05044 2.05029 1.05044C2.31551 1.05044 2.56986 1.1558 2.7574 1.34334L12.6569 11.2428C12.8444 11.4304 12.9498 11.6847 12.9498 11.9499C12.9498 12.2152 12.8444 12.4695 12.6569 12.657C12.4694 12.8446 12.215 12.9499 11.9498 12.9499C11.6846 12.9499 11.4302 12.8446 11.2427 12.657L1.34319 2.75755C1.15565 2.57001 1.05029 2.31566 1.05029 2.05044C1.05029 1.78523 1.15565 1.53087 1.34319 1.34334Z" fill="#053634"/>
<path d="M1.34309 12.6573C1.15556 12.4698 1.0502 12.2154 1.0502 11.9502C1.0502 11.685 1.15556 11.4306 1.34309 11.2431L11.2426 1.34359C11.4301 1.15606 11.6845 1.0507 11.9497 1.0507C12.2149 1.0507 12.4693 1.15606 12.6568 1.34359C12.8443 1.53113 12.9497 1.78548 12.9497 2.0507C12.9497 2.31592 12.8443 2.57027 12.6568 2.75781L2.75731 12.6573C2.56977 12.8448 2.31542 12.9502 2.0502 12.9502C1.78498 12.9502 1.53063 12.8448 1.34309 12.6573Z" fill="#053634"/>
</svg>
