<svg width="119" height="66" viewBox="0 0 119 66" fill="none" xmlns="http://www.w3.org/2000/svg">
<path d="M48.3359 26.0002C48.8479 26.1122 49.3279 26.1762 49.7919 26.1762C51.6639 26.1762 52.7679 25.2482 52.7679 23.3762V15.4402H51.0719V23.2002C51.0719 24.2722 50.5279 24.6242 49.4239 24.6242C49.1839 24.6242 48.8159 24.5922 48.3359 24.5442V26.0002Z" fill="#053634"/>
<path d="M57.6617 26.0002H64.7977V24.4802H59.3577V21.1362H63.3097V19.6642H59.3577V16.9602H64.6057V15.4402H57.6617V26.0002Z" fill="#053634"/>
<path d="M68.2591 23.8882C69.0751 25.3122 70.5151 26.1762 72.2431 26.1762C74.2751 26.1762 75.7791 24.9602 75.7791 23.1202C75.7791 21.7282 74.9631 20.8962 73.2511 20.1122L72.0671 19.5682C71.0271 19.0402 70.6591 18.8962 70.5951 18.0642C70.5951 17.2322 71.2991 16.7842 72.1951 16.7842C73.0911 16.7842 73.8591 17.2322 74.4191 18.0642L75.6031 17.1522C74.9471 16.0162 73.6831 15.2642 72.1951 15.2642C70.3711 15.2642 68.8671 16.4002 68.8671 18.1282C68.8671 19.5362 69.7951 20.3522 71.3311 21.0562L72.4991 21.6002C73.6031 22.1122 74.0511 22.4322 74.0511 23.1842C74.0511 24.0802 73.3151 24.6562 72.2271 24.6562C71.0111 24.6562 70.1631 24.0002 69.4591 22.9762L68.2591 23.8882Z" fill="#053634"/>
<path d="M79.3584 23.8882C80.1744 25.3122 81.6144 26.1762 83.3424 26.1762C85.3744 26.1762 86.8784 24.9602 86.8784 23.1202C86.8784 21.7282 86.0624 20.8962 84.3504 20.1122L83.1664 19.5682C82.1264 19.0402 81.7584 18.8962 81.6944 18.0642C81.6944 17.2322 82.3984 16.7842 83.2944 16.7842C84.1904 16.7842 84.9584 17.2322 85.5184 18.0642L86.7024 17.1522C86.0464 16.0162 84.7824 15.2642 83.2944 15.2642C81.4704 15.2642 79.9664 16.4002 79.9664 18.1282C79.9664 19.5362 80.8944 20.3522 82.4304 21.0562L83.5984 21.6002C84.7024 22.1122 85.1504 22.4322 85.1504 23.1842C85.1504 24.0802 84.4144 24.6562 83.3264 24.6562C82.1104 24.6562 81.2624 24.0002 80.5584 22.9762L79.3584 23.8882Z" fill="#053634"/>
<path d="M91.2879 26.0002H98.4239V24.4802H92.9839V21.1362H96.9359V19.6642H92.9839V16.9602H98.2319V15.4402H91.2879V26.0002Z" fill="#053634"/>
<path d="M49.632 45.677C49.632 45.847 49.785 46 49.955 46H50.635C50.805 46 50.958 45.847 50.958 45.677V34.423C50.958 34.253 50.805 34.1 50.635 34.1H49.955C49.785 34.1 49.632 34.253 49.632 34.423V45.677ZM54.8118 45.626C54.8118 45.83 54.9818 46 55.1858 46H55.6958C55.8828 46 56.0698 45.83 56.0698 45.626V40.203C56.0698 40.203 57.0048 39.115 58.4838 39.115C59.6398 39.115 60.1498 39.812 60.1498 41.308V45.626C60.1498 45.83 60.3198 46 60.5238 46H61.0338C61.2208 46 61.4078 45.83 61.4078 45.626V41.478C61.4078 39.455 60.8468 37.976 58.5688 37.976C56.9368 37.976 55.9338 38.979 55.9338 38.979L55.7638 38.384C55.7298 38.214 55.6278 38.146 55.4578 38.146H55.1858C54.9818 38.146 54.8118 38.333 54.8118 38.52V45.626ZM65.4229 39.234V44.011C65.4229 45.235 65.7289 46.187 67.2249 46.187C68.2789 46.187 69.0949 45.796 69.4349 45.558C69.6389 45.422 69.6729 45.303 69.5709 45.048L69.4179 44.691C69.3329 44.504 69.2309 44.351 68.9249 44.538C68.6019 44.742 68.1089 45.048 67.3779 45.048C66.9359 45.048 66.6809 44.742 66.6809 43.926V39.234H68.9929C69.2139 39.234 69.3839 39.064 69.3839 38.86V38.52C69.3839 38.299 69.2139 38.146 68.9929 38.146H66.6809V35.936C66.6809 35.732 66.5279 35.545 66.3239 35.562L65.7969 35.596C65.6099 35.613 65.4229 35.766 65.4229 35.97V38.146H64.3859C64.1479 38.146 63.9949 38.299 63.9949 38.52V38.86C63.9949 39.064 64.1479 39.234 64.3859 39.234H65.4229ZM71.8813 42.073C71.8813 44.317 73.3093 46.187 75.6893 46.187C77.0493 46.187 78.0863 45.66 78.5623 45.286C78.8513 45.065 78.7833 44.98 78.6303 44.742L78.4263 44.453C78.2223 44.147 78.1033 44.215 77.8313 44.402C77.3893 44.691 76.7433 45.048 75.7063 45.048C74.2783 45.048 73.1733 43.671 73.1393 42.362H78.8513C79.0213 42.362 79.1913 42.226 79.2083 42.022C79.2253 41.886 79.2423 41.682 79.2423 41.546C79.2423 39.489 77.7463 37.976 75.6893 37.976C73.3093 37.976 71.8813 39.863 71.8813 42.073ZM73.1563 41.359C73.3093 40.135 74.3633 39.115 75.6893 39.115C77.0323 39.115 77.9503 40.203 77.9843 41.359H73.1563ZM82.3259 45.626C82.3259 45.83 82.4959 46 82.6999 46H83.2099C83.3969 46 83.5839 45.83 83.5839 45.626V40.186C83.5839 40.186 84.1959 39.183 85.7089 39.183C86.0829 39.183 86.3719 39.319 86.5589 39.404C86.7459 39.489 86.9329 39.472 87.0179 39.217L87.2389 38.605C87.4259 38.061 86.4569 37.976 85.8619 37.976C84.2299 37.976 83.4479 38.979 83.4479 38.979L83.3119 38.418C83.2609 38.231 83.1249 38.146 82.9719 38.146H82.6999C82.4959 38.146 82.3259 38.333 82.3259 38.52V45.626ZM90.4985 36.123C91.0255 36.123 91.4335 35.698 91.4335 35.205C91.4335 34.661 91.0255 34.253 90.4985 34.253C89.9885 34.253 89.5805 34.661 89.5805 35.205C89.5805 35.698 89.9885 36.123 90.4985 36.123ZM89.9035 45.626C89.9035 45.83 90.0735 46 90.2775 46H90.7875C90.9745 46 91.1615 45.83 91.1615 45.626V38.52C91.1615 38.333 90.9745 38.146 90.7875 38.146H90.2775C90.0735 38.146 89.9035 38.333 89.9035 38.52V45.626ZM94.3315 42.056C94.3315 44.3 96.0995 46.187 98.2755 46.187C100.452 46.187 102.22 44.3 102.22 42.056C102.22 39.846 100.452 37.976 98.2755 37.976C96.0995 37.976 94.3315 39.846 94.3315 42.056ZM95.5725 42.056C95.5725 40.458 96.7285 39.115 98.2755 39.115C99.8225 39.115 100.962 40.458 100.962 42.056C100.962 43.688 99.8225 45.048 98.2755 45.048C96.7285 45.048 95.5725 43.688 95.5725 42.056ZM105.374 45.626C105.374 45.83 105.544 46 105.748 46H106.258C106.445 46 106.632 45.83 106.632 45.626V40.186C106.632 40.186 107.244 39.183 108.757 39.183C109.131 39.183 109.42 39.319 109.607 39.404C109.794 39.489 109.981 39.472 110.066 39.217L110.287 38.605C110.474 38.061 109.505 37.976 108.91 37.976C107.278 37.976 106.496 38.979 106.496 38.979L106.36 38.418C106.309 38.231 106.173 38.146 106.02 38.146H105.748C105.544 38.146 105.374 38.333 105.374 38.52V45.626ZM115.145 46.187C116.743 46.187 117.814 45.184 117.814 43.943C117.814 42.515 116.641 42.005 115.281 41.376C114.329 40.934 113.785 40.679 113.785 39.982C113.785 39.608 114.074 39.115 114.941 39.115C115.672 39.115 116.216 39.37 116.556 39.574C116.726 39.676 116.981 39.659 117.1 39.438L117.27 39.115C117.389 38.894 117.355 38.724 117.185 38.588C116.811 38.316 115.961 37.976 114.941 37.976C113.122 37.976 112.51 39.217 112.51 40.033C112.51 41.376 113.7 41.937 114.737 42.447C115.876 43.008 116.488 43.314 116.488 44.062C116.488 44.674 115.944 45.048 115.145 45.048C114.142 45.048 113.462 44.555 113.19 44.351C112.969 44.198 112.833 44.266 112.731 44.453L112.493 44.895C112.425 45.031 112.459 45.15 112.544 45.235C112.952 45.609 113.836 46.187 115.145 46.187Z" fill="#5F7D78"/>
<path d="M30.622 7.995C30.7033 7.995 30.744 7.95433 30.744 7.873C30.744 7.79166 30.7033 7.751 30.622 7.751H10.492C10.4107 7.751 10.37 7.79166 10.37 7.873C10.37 7.95433 10.4107 7.995 10.492 7.995H15.982C16.226 7.995 16.348 8.07633 16.348 8.239V46.852C16.348 48.56 15.9413 49.8207 15.128 50.634C14.3553 51.4473 13.3183 51.854 12.017 51.854C10.9597 51.854 9.98367 51.488 9.089 50.756C8.235 50.024 7.808 49.1293 7.808 48.072C7.808 47.34 7.97067 46.8113 8.296 46.486C8.62133 46.1607 8.967 45.8353 9.333 45.51C9.699 45.1847 10.0447 44.7983 10.37 44.351C10.6953 43.9037 10.858 43.192 10.858 42.216C10.858 40.9147 10.3903 39.776 9.455 38.8C8.51967 37.824 7.381 37.336 6.039 37.336C5.429 37.336 4.819 37.4783 4.209 37.763C3.599 38.007 3.05 38.373 2.562 38.861C2.074 39.349 1.66733 39.959 1.342 40.691C1.01667 41.3823 0.854 42.1753 0.854 43.07C0.854 44.168 1.159 45.266 1.769 46.364C2.41967 47.4213 3.25333 48.377 4.27 49.231C5.32733 50.0443 6.527 50.7153 7.869 51.244C9.211 51.7727 10.5937 52.037 12.017 52.037C15.8803 52.037 18.9507 51.061 21.228 49.109C23.546 47.157 24.705 44.3917 24.705 40.813V8.239C24.705 8.07633 24.8473 7.995 25.132 7.995H30.622Z" fill="#053634"/>
<path d="M36.0296 48.194C36.0296 47.218 35.7042 46.3843 35.0536 45.693C34.4029 44.961 33.6099 44.595 32.6746 44.595C31.7392 44.595 30.9259 44.961 30.2346 45.693C29.5839 46.3843 29.2586 47.218 29.2586 48.194C29.2586 49.2107 29.5839 50.0647 30.2346 50.756C30.9259 51.4473 31.7392 51.793 32.6746 51.793C33.6099 51.793 34.4029 51.4473 35.0536 50.756C35.7042 50.0647 36.0296 49.2107 36.0296 48.194Z" fill="#EBB017"/>
</svg>
